# xmcd
#
# Track frame offsets:
#	150
#	15913
#	34864
#	53154
#	74632
#	89392
#	109404
#	123155
#	141633
#	164050
#	182582
#	206068
#
# Disc length: 2781 seconds
# Revision: 0
# Processed by: cddbd v1.5.2PL0 Copyright (c) Steve Scherf et al.
# Submitted via: dBpowerAMP V12.0
#
DISCID=b20adb0c
DTITLE=Brad Paisley - Christmas
DYEAR=1900
DGENRE=Christmas
TTITLE0=Winter Wonderland
TTITLE1=Santa Looked a Lot Like Daddy
TTITLE2=I'll Be Home For Christmas
TTITLE3=Away In a Manger
TTITLE4=Penguin, James Penguin
TTITLE5=364 Days To Go
TTITLE6=Jingle Bells
TTITLE7=Silent Night
TTITLE8=Born On Christmas Day
TTITLE9=Silver Bells
TTITLE10=Kung Pao Buckaroo Holiday (with Kung Pao Buckaroos)
TTITLE11=Outtake with Little Jimmy Dickens
EXTD=
EXTT0=
EXTT1=
EXTT2=
EXTT3=
EXTT4=
EXTT5=
EXTT6=
EXTT7=
EXTT8=
EXTT9=
EXTT10=
EXTT11=
PLAYORDER=
